<?xml version="1.0" encoding="utf-8"?>
<!-- Generator: Adobe Illustrator 16.0.0, SVG Export Plug-In . SVG Version: 6.00 Build 0)  -->
<!DOCTYPE svg PUBLIC "-//W3C//DTD SVG 1.1//EN" "http://www.w3.org/Graphics/SVG/1.1/DTD/svg11.dtd">
<svg version="1.1" id="Layer_1" xmlns="http://www.w3.org/2000/svg" xmlns:xlink="http://www.w3.org/1999/xlink" x="0px" y="0px"
	 width="300px" height="300px" viewBox="0 0 300 300" enable-background="new 0 0 300 300" xml:space="preserve">
<path fill="#00DC00" d="M300,242c0,33.137-26.863,60-60,60H60c-33.137,0-60-26.863-60-60V62C0,28.863,26.863,2,60,2h180
	c33.137,0,60,26.863,60,60V242z"/>
<rect x="34" y="179" fill="#FFFFFF" width="41" height="41"/>
<rect x="83" y="179" fill="#FFFFFF" width="41" height="41"/>
<rect x="83" y="132" fill="#FFFFFF" width="41" height="40"/>
<rect x="83" y="85" fill="#FFFFFF" width="41" height="40"/>
<rect x="130" y="85" fill="#FFFFFF" width="40" height="40"/>
<rect x="176" y="85" fill="#FFFFFF" width="41" height="40"/>
<rect x="176" y="132" fill="#FFFFFF" width="41" height="40"/>
<rect x="176" y="179" fill="#FFFFFF" width="41" height="41"/>
<rect x="224" y="179" fill="#FFFFFF" width="41" height="41"/>
</svg>
